<svg style="display: none"  xmlns="http://www.w3.org/2000/svg">
  <simbol viewBox="0 0 30 30" fill="none" id="phone">
    <path d="M7.39635 8.62432C7.31179 7.42623 7.57753 6.24606 8.28114 5.29684C8.89115 4.43632 9.68536 3.96636 10.6426 3.69172C11.4489 3.4525 11.9774 3.74561 12.2099 4.64204C12.5421 5.98224 13.0162 7.3225 13.1884 8.73361C13.2427 9.35485 12.8411 10.2332 12.4062 10.6856C11.3161 11.7589 11.5426 12.5399 12.37 14.1643C12.6267 14.6881 13.0344 15.5934 13.8286 16.7919C14.656 17.9992 15.0939 18.6472 16.1569 18.0975C17.3376 17.5035 18.1983 17.8855 19.0891 18.8444C19.6931 19.5369 20.3574 20.1318 20.9614 20.8243C21.8341 21.8542 21.7949 22.5641 21.1124 23.2915C19.8833 24.6309 17.854 25.0736 16.3441 24.1766C15.5106 23.6881 14.6802 23.0487 14.0188 22.303C11.1047 18.9825 9.00291 15.1212 7.73759 10.7632C7.53526 10.0265 7.44165 9.28104 7.39635 8.62432Z" stroke="#141517" stroke-width="2" stroke-miterlimit="10"/>
  </simbol>

  <simbol  viewBox="0 0 26 20" fill="none" id="mail">
    <path d="M24.2273 0H1.77273C0.768182 0 0 0.764706 0 1.76471V18.2353C0 19.2353 0.768182 20 1.77273 20H24.2273C25.2318 20 26 19.2353 26 18.2353V1.76471C26 0.764706 25.2318 0 24.2273 0ZM24.2273 17L19.5591 12.3529C19.2045 12 18.6727 12 18.3182 12.3529C17.9636 12.7059 17.9636 13.2353 18.3182 13.5882L22.9864 18.2353H3.01362L7.68182 13.5882C8.03636 13.2353 8.03636 12.7059 7.68182 12.3529C7.32727 12 6.79547 12 6.44092 12.3529L1.77273 17V5.70585L12.4091 13.7059C12.5864 13.8236 12.7636 13.8823 12.9409 13.8823C13.1182 13.8823 13.2954 13.8236 13.4727 13.7059L24.2273 5.70585V17ZM24.2273 1.76471V3.4706L12.9409 11.8235L1.77273 3.4706V1.76471H24.2273Z" fill="#D7D9DF"/>
  </simbol>
</svg>
